<?xml version="1.0" standalone="no"?>
<!DOCTYPE svg PUBLIC "-//W3C//DTD SVG 20010904//EN"
 "http://www.w3.org/TR/2001/REC-SVG-20010904/DTD/svg10.dtd">
<svg version="1.0" xmlns="http://www.w3.org/2000/svg"
 width="100.000000pt" height="100.000000pt" viewBox="0 0 100.000000 100.000000"
 preserveAspectRatio="xMidYMid meet">
<metadata>
Created by potrace 1.11, written by Peter Selinger 2001-2013
</metadata>
<g transform="translate(0.000000,100.000000) scale(0.100000,-0.100000)"
fill="#000000" stroke="none">
<path d="M166 956 c-84 -31 -135 -116 -121 -203 4 -27 6 -64 5 -83 -3 -33 -3
-62 -2 -165 1 -82 1 -213 -1 -298 -1 -48 4 -64 29 -99 31 -45 85 -78 138 -85
l34 -4 0 73 c0 128 -11 115 92 114 l90 -1 0 28 c0 41 -26 95 -61 128 l-31 29
48 1 c27 0 60 3 74 6 14 4 41 6 60 5 140 -6 148 -5 180 14 80 46 118 138 95
227 -7 27 -8 52 -3 61 24 42 4 151 -34 196 -29 35 -79 61 -120 63 l-42 2 1
-47 2 -48 -37 39 c-43 46 -106 67 -167 56 -44 -8 -65 -8 -140 0 -31 3 -65 0
-89 -9z m131 -20 c3 -3 -8 -21 -25 -40 -17 -20 -34 -51 -38 -70 -5 -30 -12
-37 -51 -50 -24 -8 -58 -27 -76 -42 l-32 -27 -9 41 c-17 79 38 166 121 192 28
9 100 7 110 -4z m200 -7 c47 -23 89 -76 95 -119 3 -24 2 -25 -76 -25 -62 0
-79 3 -83 15 -15 47 -29 76 -51 102 -29 34 -22 43 34 46 21 2 55 -6 81 -19z
m183 3 c55 -22 100 -92 100 -157 0 -61 -8 -68 -46 -39 -19 15 -51 32 -71 39
l-38 13 -3 81 c-3 87 -3 87 58 63z m-308 -53 c16 -20 30 -48 31 -63 2 -23 -4
-29 -35 -40 -42 -15 -118 -2 -118 20 0 41 61 129 84 121 5 -2 23 -19 38 -38z
m219 -126 c13 -13 -29 -91 -59 -111 -24 -16 -26 -15 -54 18 -30 36 -50 91 -37
100 12 8 140 3 150 -7z m-366 -73 c0 -59 -3 -80 -13 -80 -21 0 -85 36 -106 59
-19 21 -19 22 5 47 25 27 72 53 99 54 12 0 15 -15 15 -80z m68 74 c3 -4 -4
-19 -15 -35 -24 -32 -38 -24 -30 17 4 22 30 33 45 18z m117 -30 l0 -35 -29 28
c-29 28 -25 43 12 43 13 0 17 -8 17 -36z m280 16 c75 -38 72 -82 -6 -120 -62
-31 -64 -29 -64 60 0 91 4 94 70 60z m-329 -32 c21 -23 49 -78 49 -98 0 -6
-32 -10 -80 -10 -70 0 -80 2 -80 18 0 33 57 112 82 112 4 0 17 -10 29 -22z
m237 -68 c-1 -43 -1 -43 -35 -34 l-23 6 28 33 c15 19 28 34 29 34 2 1 2 -17 1
-39z m-125 -32 c-32 -12 -38 -8 -40 28 l-2 37 30 -29 c27 -25 28 -29 12 -36z
m307 -16 c0 -102 -81 -183 -177 -177 -62 5 -69 12 -39 42 14 14 34 47 43 73
15 42 21 48 59 58 23 6 55 24 71 40 33 35 43 26 43 -36z m-660 27 l39 -31 -42
-32 -42 -32 -7 31 c-4 17 -5 40 -3 50 2 11 4 26 4 33 1 18 8 15 51 -19z m454
-39 c23 -8 24 -11 14 -44 -6 -19 -25 -49 -43 -66 l-32 -31 -31 32 c-27 27 -46
70 -43 96 2 13 64 32 88 27 12 -2 33 -8 47 -14z m-350 -83 c-1 -40 -2 -75 -3
-79 -2 -14 -75 18 -103 45 -26 27 -28 31 -15 50 17 26 93 68 111 61 8 -3 11
-27 10 -77z m98 57 c53 -27 112 -134 74 -134 -58 0 -130 66 -142 129 -7 32 -6
33 17 26 13 -4 36 -14 51 -21z m101 -22 c9 -26 28 -59 42 -75 18 -19 22 -28
13 -31 -7 -2 -21 -7 -30 -10 -13 -4 -18 0 -18 14 0 31 -21 73 -58 112 l-34 36
34 0 c31 0 35 -4 51 -46z m-113 -113 c0 -3 -13 -5 -29 -5 -32 -2 -40 12 -33
53 4 20 6 20 33 -12 16 -18 29 -34 29 -36z m-173 -32 c-60 -49 -59 -49 -67
-37 -6 10 -6 41 -1 107 1 8 19 -1 45 -20 l44 -32 -21 -18z m88 -74 c0 -49 -5
-78 -12 -80 -18 -6 -77 24 -104 53 l-22 24 24 26 c25 27 72 53 100 54 12 0 15
-13 14 -77z m94 56 c40 -22 76 -69 87 -112 l6 -28 -82 3 -83 3 0 45 c2 105 3
110 19 110 9 0 33 -9 53 -21z m-218 -105 c15 -18 63 -44 99 -54 23 -6 24 -10
25 -83 1 -51 -3 -78 -11 -81 -22 -9 -95 37 -121 75 -24 36 -36 101 -26 140 6
23 16 24 34 3z"/>
</g>
</svg>
